<svg xmlns="http://www.w3.org/2000/svg" xmlns:xlink="http://www.w3.org/1999/xlink" xml:lang="en" height="195.20000000000002pt" width="352.64pt" viewBox="-14.32 -97.60000000000001 352.64 195.20000000000002"><circle cx="72" cy="-0" r="18" style="stroke:black;fill:none;stroke-width:2.0;stroke-dasharray:-;" /><circle cx="259.2" cy="-0" r="18" style="stroke:black;fill:none;stroke-width:2.0;stroke-dasharray:-;" /><path d="M 0.0,-0.0 L 16.2,-0 L 32.4,-0" style="stroke:black;fill:none;stroke-width:2.0;stroke-dasharray:-;stroke-linecap:round;stroke-linejoin:round;" /><path d="M 72.0,-7.2 L 72,7.2" style="stroke:black;fill:none;stroke-width:2.0;stroke-dasharray:-;stroke-linecap:round;stroke-linejoin:round;" /><path d="M 64.8,-0.0 L 79.2,-0" style="stroke:black;fill:none;stroke-width:2.0;stroke-dasharray:-;stroke-linecap:round;stroke-linejoin:round;" /><path d="M 32.4,-0.0 L 43.2,-0 L 54,-0" style="stroke:black;fill:none;stroke-width:2.0;stroke-dasharray:-;stroke-linecap:round;stroke-linejoin:round;" /><path d="M 90.0,-0.0 L 106.2,-0 L 113.4,-0" style="stroke:black;fill:none;stroke-width:2.0;stroke-dasharray:-;stroke-linecap:round;stroke-linejoin:round;" /><path d="M 120.4 0 L 113.4 2.7 L 113.4 -2.7 Z" style="stroke:black;fill:black;stroke-linecap:butt;stroke-linejoin:miter;" /><path d="M 122.39999999999999,-0.0 L 122.4,-18 L 208.8,-18 L 208.8,18 L 122.4,18 L 122.4,-0" style="stroke:black;fill:none;stroke-width:2.0;stroke-dasharray:-;stroke-linecap:round;stroke-linejoin:round;" /><path d="M 208.79999999999998,-0.0 L 225,-0 L 232.2,-0" style="stroke:black;fill:none;stroke-width:2.0;stroke-dasharray:-;stroke-linecap:round;stroke-linejoin:round;" /><path d="M 239.2 0 L 232.2 2.7 L 232.2 -2.7 Z" style="stroke:black;fill:black;stroke-linecap:butt;stroke-linejoin:miter;" /><path d="M 259.2,-7.2 L 259.2,7.2" style="stroke:black;fill:none;stroke-width:2.0;stroke-dasharray:-;stroke-linecap:round;stroke-linejoin:round;" /><path d="M 252.0,-0.0 L 266.4,-0" style="stroke:black;fill:none;stroke-width:2.0;stroke-dasharray:-;stroke-linecap:round;stroke-linejoin:round;" /><path d="M 277.2,-0.0 L 300.6,-0 L 315,-0" style="stroke:black;fill:none;stroke-width:2.0;stroke-dasharray:-;stroke-linecap:round;stroke-linejoin:round;" /><path d="M 322 0 L 315 2.7 L 315 -2.7 Z" style="stroke:black;fill:black;stroke-linecap:butt;stroke-linejoin:miter;" /><path d="M 32.4,-0.0 L 32.4,-30.6 L 32.4,-61.2" style="stroke:black;fill:none;stroke-width:2.0;stroke-dasharray:-;stroke-linecap:round;stroke-linejoin:round;" /><path d="M 32.400000000000006,-61.199999999999996 L 32.4,-43.2 L 59.4,-61.2 L 32.4,-79.2 L 32.4,-61.2" style="stroke:black;fill:none;stroke-width:2.0;stroke-dasharray:-;stroke-linecap:round;stroke-linejoin:round;" /><path d="M 59.400000000000006,-61.199999999999996 L 159.3,-61.2 L 259.2,-61.2" style="stroke:black;fill:none;stroke-width:2.0;stroke-dasharray:-;stroke-linecap:round;stroke-linejoin:round;" /><path d="M 259.2,-61.199999999999996 L 259.2,-39.6 L 259.2,-27" style="stroke:black;fill:none;stroke-width:2.0;stroke-dasharray:-;stroke-linecap:round;stroke-linejoin:round;" /><path d="M 259.2 -20 L 256.5 -27 L 261.9 -27 Z" style="stroke:black;fill:black;stroke-linecap:butt;stroke-linejoin:miter;" /><path d="M 208.79999999999998,-0.0 L 208.8,30.6 L 208.8,61.2" style="stroke:black;fill:none;stroke-width:2.0;stroke-dasharray:-;stroke-linecap:round;stroke-linejoin:round;" /><path d="M 208.79999999999998,61.199999999999996 L 208.8,43.2 L 181.8,61.2 L 208.8,79.2 L 208.8,61.2" style="stroke:black;fill:none;stroke-width:2.0;stroke-dasharray:-;stroke-linecap:round;stroke-linejoin:round;" /><path d="M 181.79999999999998,61.199999999999996 L 126.9,61.2 L 72,61.2" style="stroke:black;fill:none;stroke-width:2.0;stroke-dasharray:-;stroke-linecap:round;stroke-linejoin:round;" /><path d="M 72.0,61.19999999999998 L 72,39.6 L 72,27" style="stroke:black;fill:none;stroke-width:2.0;stroke-dasharray:-;stroke-linecap:round;stroke-linejoin:round;" /><path d="M 72 20 L 74.7 27 L 69.3 27 Z" style="stroke:black;fill:black;stroke-linecap:butt;stroke-linejoin:miter;" /><text x="-3.6000000000000014" y="-12.0" dominant-baseline="central" fill="black" font-size="12" font-family="sans" text-anchor="end"><tspan x="-3.6000000000000014" dy="12">x</tspan></text><text x="165.6" y="-18.0" dominant-baseline="central" fill="black" font-size="12" font-family="sans" text-anchor="middle"><tspan x="165.6" dy="12">z⁻ᴰ (BRAM)</tspan><tspan x="165.6" dy="12">163…403</tspan></text><text x="327.59999999999997" y="-12.0" dominant-baseline="central" fill="black" font-size="12" font-family="sans" text-anchor="start"><tspan x="327.59999999999997" dy="12">y</tspan></text><text x="45.900000000000006" y="-93.0" dominant-baseline="ideographic" fill="black" font-size="12" font-family="sans" text-anchor="middle"><tspan x="45.900000000000006" dy="12">×(−½)</tspan></text><text x="195.29999999999998" y="69.0" dominant-baseline="hanging" fill="black" font-size="12" font-family="sans" text-anchor="middle"><tspan x="195.29999999999998" dy="12">×½</tspan></text><circle cx="32.4" cy="-0" r="2.7" style="stroke:black;fill:black;stroke-width:2.0;stroke-dasharray:-;" /><circle cx="208.8" cy="-0" r="2.7" style="stroke:black;fill:black;stroke-width:2.0;stroke-dasharray:-;" /></svg>