<svg xmlns="http://www.w3.org/2000/svg" xmlns:xlink="http://www.w3.org/1999/xlink" xml:lang="en" height="210.79999999999998pt" width="768.3679999999999pt" viewBox="-35.919999999999995 -105.39999999999999 768.3679999999999 210.79999999999998"><circle cx="244.8" cy="-0" r="18" style="stroke:black;fill:none;stroke-width:2.0;stroke-dasharray:-;" /><path d="M 0.0,-0.0 L 18,-0 L 36,-0" style="stroke:black;fill:none;stroke-width:2.0;stroke-dasharray:-;stroke-linecap:round;stroke-linejoin:round;" /><path d="M 86.39999999999999,-86.39999999999999 L 86.4,-100.8 L 165.6,-100.8 L 165.6,-72 L 86.4,-72 L 86.4,-86.4" style="stroke:black;fill:none;stroke-width:2.0;stroke-dasharray:-;stroke-linecap:round;stroke-linejoin:round;" /><path d="M 36.0,-0.0 L 36,-43.2 L 36,-86.4" style="stroke:black;fill:none;stroke-width:2.0;stroke-dasharray:-;stroke-linecap:round;stroke-linejoin:round;" /><path d="M 36.0,-86.39999999999999 L 61.2,-86.4 L 77.4,-86.4" style="stroke:black;fill:none;stroke-width:2.0;stroke-dasharray:-;stroke-linecap:round;stroke-linejoin:round;" /><path d="M 84.4 -86.4 L 77.4 -83.7 L 77.4 -89.1 Z" style="stroke:black;fill:black;stroke-linecap:butt;stroke-linejoin:miter;" /><path d="M 86.39999999999999,-28.8 L 86.4,-43.2 L 165.6,-43.2 L 165.6,-14.4 L 86.4,-14.4 L 86.4,-28.8" style="stroke:black;fill:none;stroke-width:2.0;stroke-dasharray:-;stroke-linecap:round;stroke-linejoin:round;" /><path d="M 36.0,-0.0 L 36,-14.4 L 36,-28.8" style="stroke:black;fill:none;stroke-width:2.0;stroke-dasharray:-;stroke-linecap:round;stroke-linejoin:round;" /><path d="M 36.0,-28.8 L 61.2,-28.8 L 77.4,-28.8" style="stroke:black;fill:none;stroke-width:2.0;stroke-dasharray:-;stroke-linecap:round;stroke-linejoin:round;" /><path d="M 84.4 -28.8 L 77.4 -26.1 L 77.4 -31.5 Z" style="stroke:black;fill:black;stroke-linecap:butt;stroke-linejoin:miter;" /><path d="M 86.39999999999999,28.8 L 86.4,14.4 L 165.6,14.4 L 165.6,43.2 L 86.4,43.2 L 86.4,28.8" style="stroke:black;fill:none;stroke-width:2.0;stroke-dasharray:-;stroke-linecap:round;stroke-linejoin:round;" /><path d="M 36.0,-0.0 L 36,14.4 L 36,28.8" style="stroke:black;fill:none;stroke-width:2.0;stroke-dasharray:-;stroke-linecap:round;stroke-linejoin:round;" /><path d="M 36.0,28.8 L 61.2,28.8 L 77.4,28.8" style="stroke:black;fill:none;stroke-width:2.0;stroke-dasharray:-;stroke-linecap:round;stroke-linejoin:round;" /><path d="M 84.4 28.8 L 77.4 31.5 L 77.4 26.1 Z" style="stroke:black;fill:black;stroke-linecap:butt;stroke-linejoin:miter;" /><path d="M 86.39999999999999,86.39999999999999 L 86.4,72 L 165.6,72 L 165.6,100.8 L 86.4,100.8 L 86.4,86.4" style="stroke:black;fill:none;stroke-width:2.0;stroke-dasharray:-;stroke-linecap:round;stroke-linejoin:round;" /><path d="M 36.0,-0.0 L 36,43.2 L 36,86.4" style="stroke:black;fill:none;stroke-width:2.0;stroke-dasharray:-;stroke-linecap:round;stroke-linejoin:round;" /><path d="M 36.0,86.39999999999999 L 61.2,86.4 L 77.4,86.4" style="stroke:black;fill:none;stroke-width:2.0;stroke-dasharray:-;stroke-linecap:round;stroke-linejoin:round;" /><path d="M 84.4 86.4 L 77.4 89.1 L 77.4 83.7 Z" style="stroke:black;fill:black;stroke-linecap:butt;stroke-linejoin:miter;" /><path d="M 165.6,-86.39999999999999 L 196.2,-86.4 L 226.8,-86.4" style="stroke:black;fill:none;stroke-width:2.0;stroke-dasharray:-;stroke-linecap:round;stroke-linejoin:round;" /><path d="M 226.79999999999998,-86.39999999999999 L 226.8,-43.2 L 226.8,-9" style="stroke:black;fill:none;stroke-width:2.0;stroke-dasharray:-;stroke-linecap:round;stroke-linejoin:round;" /><path d="M 226.8 -2 L 224.1 -9 L 229.5 -9 Z" style="stroke:black;fill:black;stroke-linecap:butt;stroke-linejoin:miter;" /><path d="M 165.6,-28.8 L 196.2,-28.8 L 226.8,-28.8" style="stroke:black;fill:none;stroke-width:2.0;stroke-dasharray:-;stroke-linecap:round;stroke-linejoin:round;" /><path d="M 226.79999999999998,-28.8 L 226.8,-14.4 L 226.8,-9" style="stroke:black;fill:none;stroke-width:2.0;stroke-dasharray:-;stroke-linecap:round;stroke-linejoin:round;" /><path d="M 226.8 -2 L 224.1 -9 L 229.5 -9 Z" style="stroke:black;fill:black;stroke-linecap:butt;stroke-linejoin:miter;" /><path d="M 165.6,28.8 L 196.2,28.8 L 226.8,28.8" style="stroke:black;fill:none;stroke-width:2.0;stroke-dasharray:-;stroke-linecap:round;stroke-linejoin:round;" /><path d="M 226.79999999999998,28.8 L 226.8,14.4 L 226.8,9" style="stroke:black;fill:none;stroke-width:2.0;stroke-dasharray:-;stroke-linecap:round;stroke-linejoin:round;" /><path d="M 226.8 2 L 229.5 9 L 224.1 9 Z" style="stroke:black;fill:black;stroke-linecap:butt;stroke-linejoin:miter;" /><path d="M 165.6,86.39999999999999 L 196.2,86.4 L 226.8,86.4" style="stroke:black;fill:none;stroke-width:2.0;stroke-dasharray:-;stroke-linecap:round;stroke-linejoin:round;" /><path d="M 226.79999999999998,86.39999999999999 L 226.8,43.2 L 226.8,9" style="stroke:black;fill:none;stroke-width:2.0;stroke-dasharray:-;stroke-linecap:round;stroke-linejoin:round;" /><path d="M 226.8 2 L 229.5 9 L 224.1 9 Z" style="stroke:black;fill:black;stroke-linecap:butt;stroke-linejoin:miter;" /><path d="M 262.8,-0.0 L 280.8,-0 L 289.8,-0" style="stroke:black;fill:none;stroke-width:2.0;stroke-dasharray:-;stroke-linecap:round;stroke-linejoin:round;" /><path d="M 296.8 0 L 289.8 2.7 L 289.8 -2.7 Z" style="stroke:black;fill:black;stroke-linecap:butt;stroke-linejoin:miter;" /><path d="M 298.8,-0.0 L 298.8,-16.2 L 367.2,-16.2 L 367.2,16.2 L 298.8,16.2 L 298.8,-0" style="stroke:black;fill:none;stroke-width:2.0;stroke-dasharray:-;stroke-linecap:round;stroke-linejoin:round;" /><path d="M 367.20000000000005,-0.0 L 378,-0 L 379.8,-0" style="stroke:black;fill:none;stroke-width:2.0;stroke-dasharray:-;stroke-linecap:round;stroke-linejoin:round;" /><path d="M 386.8 0 L 379.8 2.7 L 379.8 -2.7 Z" style="stroke:black;fill:black;stroke-linecap:butt;stroke-linejoin:miter;" /><path d="M 388.8,-0.0 L 388.8,-16.2 L 457.2,-16.2 L 457.2,16.2 L 388.8,16.2 L 388.8,-0" style="stroke:black;fill:none;stroke-width:2.0;stroke-dasharray:-;stroke-linecap:round;stroke-linejoin:round;" /><path d="M 457.20000000000005,-0.0 L 468,-0 L 469.8,-0" style="stroke:black;fill:none;stroke-width:2.0;stroke-dasharray:-;stroke-linecap:round;stroke-linejoin:round;" /><path d="M 476.8 0 L 469.8 2.7 L 469.8 -2.7 Z" style="stroke:black;fill:black;stroke-linecap:butt;stroke-linejoin:miter;" /><path d="M 478.8,-0.0 L 478.8,-16.2 L 547.2,-16.2 L 547.2,16.2 L 478.8,16.2 L 478.8,-0" style="stroke:black;fill:none;stroke-width:2.0;stroke-dasharray:-;stroke-linecap:round;stroke-linejoin:round;" /><path d="M 547.2,-0.0 L 558,-0 L 559.8,-0" style="stroke:black;fill:none;stroke-width:2.0;stroke-dasharray:-;stroke-linecap:round;stroke-linejoin:round;" /><path d="M 566.8 0 L 559.8 2.7 L 559.8 -2.7 Z" style="stroke:black;fill:black;stroke-linecap:butt;stroke-linejoin:miter;" /><path d="M 568.8000000000001,-0.0 L 568.8,-16.2 L 637.2,-16.2 L 637.2,16.2 L 568.8,16.2 L 568.8,-0" style="stroke:black;fill:none;stroke-width:2.0;stroke-dasharray:-;stroke-linecap:round;stroke-linejoin:round;" /><path d="M 637.1999999999999,-0.0 L 658.8,-0 L 671.4,-0" style="stroke:black;fill:none;stroke-width:2.0;stroke-dasharray:-;stroke-linecap:round;stroke-linejoin:round;" /><path d="M 678.4 0 L 671.4 2.7 L 671.4 -2.7 Z" style="stroke:black;fill:black;stroke-linecap:butt;stroke-linejoin:miter;" /><text x="-3.599999999999999" y="-18.0" dominant-baseline="central" fill="black" font-size="12" font-family="sans" text-anchor="end"><tspan x="-3.599999999999999" dy="12">send</tspan><tspan x="-3.599999999999999" dy="12">(÷64)</tspan></text><text x="126.0" y="-98.39999999999999" dominant-baseline="central" fill="black" font-size="12" font-family="sans" text-anchor="middle"><tspan x="126.0" dy="12">comb 0</tspan></text><text x="126.0" y="-40.8" dominant-baseline="central" fill="black" font-size="12" font-family="sans" text-anchor="middle"><tspan x="126.0" dy="12">comb 1</tspan></text><text x="126.0" y="16.8" dominant-baseline="central" fill="black" font-size="12" font-family="sans" text-anchor="middle"><tspan x="126.0" dy="12">⋮  (8 combs)</tspan></text><text x="126.0" y="74.39999999999999" dominant-baseline="central" fill="black" font-size="12" font-family="sans" text-anchor="middle"><tspan x="126.0" dy="12">comb 7</tspan></text><text x="243.0" y="-14.0" dominant-baseline="central" fill="black" font-size="14" font-family="sans" text-anchor="middle"><tspan x="243.0" dy="14">Σ</tspan></text><text x="280.8" y="-21.0" dominant-baseline="ideographic" fill="black" font-size="12" font-family="sans" text-anchor="middle"><tspan x="280.8" dy="12">÷4</tspan></text><text x="333.0" y="-12.0" dominant-baseline="central" fill="black" font-size="12" font-family="sans" text-anchor="middle"><tspan x="333.0" dy="12">all-pass 0</tspan></text><text x="423.0" y="-12.0" dominant-baseline="central" fill="black" font-size="12" font-family="sans" text-anchor="middle"><tspan x="423.0" dy="12">all-pass 1</tspan></text><text x="513.0" y="-12.0" dominant-baseline="central" fill="black" font-size="12" font-family="sans" text-anchor="middle"><tspan x="513.0" dy="12">all-pass 2</tspan></text><text x="603.0" y="-12.0" dominant-baseline="central" fill="black" font-size="12" font-family="sans" text-anchor="middle"><tspan x="603.0" dy="12">all-pass 3</tspan></text><text x="684.0" y="-18.0" dominant-baseline="central" fill="black" font-size="12" font-family="sans" text-anchor="start"><tspan x="684.0" dy="12">wet</tspan><tspan x="684.0" dy="12">(×CC93)</tspan></text><circle cx="36" cy="-0" r="2.7" style="stroke:black;fill:black;stroke-width:2.0;stroke-dasharray:-;" /></svg>