<svg xmlns="http://www.w3.org/2000/svg" xmlns:xlink="http://www.w3.org/1999/xlink" xml:lang="en" height="211.6pt" width="591.8599999999999pt" viewBox="-77.22999999999999 -71.19999999999999 591.8599999999999 211.6"><circle cx="189" cy="-0" r="18" style="stroke:black;fill:none;stroke-width:2.0;stroke-dasharray:-;" /><circle cx="126" cy="86.4" r="18" style="stroke:black;fill:none;stroke-width:2.0;stroke-dasharray:-;" /><path d="M 0.0,-0.0 L 0,-16.2 L 86.4,-16.2 L 86.4,16.2 L 0,16.2 L 0,-0" style="stroke:black;fill:none;stroke-width:2.0;stroke-dasharray:-;stroke-linecap:round;stroke-linejoin:round;" /><path d="M 86.39999999999999,-0.0 L 97.2,-0 L 108,-0" style="stroke:black;fill:none;stroke-width:2.0;stroke-dasharray:-;stroke-linecap:round;stroke-linejoin:round;" /><path d="M -46.800000000000004,-0.0 L -23.4,-0 L -9,-0" style="stroke:black;fill:none;stroke-width:2.0;stroke-dasharray:-;stroke-linecap:round;stroke-linejoin:round;" /><path d="M -2 0 L -9 2.7 L -9 -2.7 Z" style="stroke:black;fill:black;stroke-linecap:butt;stroke-linejoin:miter;" /><path d="M 108.0,-0.0 L 108,18 L 135,-0 L 108,-18 L 108,-0" style="stroke:black;fill:none;stroke-width:2.0;stroke-dasharray:-;stroke-linecap:round;stroke-linejoin:round;" /><path d="M 189.0,-7.2 L 189,7.2" style="stroke:black;fill:none;stroke-width:2.0;stroke-dasharray:-;stroke-linecap:round;stroke-linejoin:round;" /><path d="M 181.79999999999998,-0.0 L 196.2,-0" style="stroke:black;fill:none;stroke-width:2.0;stroke-dasharray:-;stroke-linecap:round;stroke-linejoin:round;" /><path d="M 135.0,-0.0 L 153,-0 L 162,-0" style="stroke:black;fill:none;stroke-width:2.0;stroke-dasharray:-;stroke-linecap:round;stroke-linejoin:round;" /><path d="M 169 0 L 162 2.7 L 162 -2.7 Z" style="stroke:black;fill:black;stroke-linecap:butt;stroke-linejoin:miter;" /><path d="M 189.0,-61.199999999999996 L 189,-39.6 L 189,-27" style="stroke:black;fill:none;stroke-width:2.0;stroke-dasharray:-;stroke-linecap:round;stroke-linejoin:round;" /><path d="M 189 -20 L 186.3 -27 L 191.7 -27 Z" style="stroke:black;fill:black;stroke-linecap:butt;stroke-linejoin:miter;" /><path d="M 228.6,-0.0 L 228.6,-16.2 L 311.4,-16.2 L 311.4,16.2 L 228.6,16.2 L 228.6,-0" style="stroke:black;fill:none;stroke-width:2.0;stroke-dasharray:-;stroke-linecap:round;stroke-linejoin:round;" /><path d="M 207.0,-0.0 L 217.8,-0 L 219.6,-0" style="stroke:black;fill:none;stroke-width:2.0;stroke-dasharray:-;stroke-linecap:round;stroke-linejoin:round;" /><path d="M 226.6 0 L 219.6 2.7 L 219.6 -2.7 Z" style="stroke:black;fill:black;stroke-linecap:butt;stroke-linejoin:miter;" /><path d="M 311.4,-0.0 L 324,-0 L 336.6,-0" style="stroke:black;fill:none;stroke-width:2.0;stroke-dasharray:-;stroke-linecap:round;stroke-linejoin:round;" /><path d="M 108.0,-0.0 L 108,43.2 L 108,86.4" style="stroke:black;fill:none;stroke-width:2.0;stroke-dasharray:-;stroke-linecap:round;stroke-linejoin:round;" /><path d="M 138.72792206135787,73.67207793864213 L 113.272,99.128" style="stroke:black;fill:none;stroke-width:1;stroke-dasharray:-;stroke-linecap:round;stroke-linejoin:round;" /><path d="M 138.72792206135787,99.12792206135786 L 113.272,73.672" style="stroke:black;fill:none;stroke-width:1;stroke-dasharray:-;stroke-linecap:round;stroke-linejoin:round;" /><path d="M 336.5999999999999,-0.0 L 336.6,23.4 L 336.6,46.8" style="stroke:black;fill:none;stroke-width:2.0;stroke-dasharray:-;stroke-linecap:round;stroke-linejoin:round;" /><path d="M 336.5999999999999,46.8 L 231.3,46.8 L 126,46.8" style="stroke:black;fill:none;stroke-width:2.0;stroke-dasharray:-;stroke-linecap:round;stroke-linejoin:round;" /><path d="M 126.0,46.8 L 126,57.6 L 126,59.4" style="stroke:black;fill:none;stroke-width:2.0;stroke-dasharray:-;stroke-linecap:round;stroke-linejoin:round;" /><path d="M 126 66.4 L 123.3 59.4 L 128.7 59.4 Z" style="stroke:black;fill:black;stroke-linecap:butt;stroke-linejoin:miter;" /><path d="M 372.5999999999999,43.199999999999996 L 372.6,-10.8 L 441,-10.8 L 441,97.2 L 372.6,97.2 L 372.6,43.2" style="stroke:black;fill:none;stroke-width:2.0;stroke-dasharray:-;stroke-linecap:round;stroke-linejoin:round;" /><path d="M 336.5999999999999,-0.0 L 354.6,-0 L 363.6,-0" style="stroke:black;fill:none;stroke-width:2.0;stroke-dasharray:-;stroke-linecap:round;stroke-linejoin:round;" /><path d="M 370.6 0 L 363.6 2.7 L 363.6 -2.7 Z" style="stroke:black;fill:black;stroke-linecap:butt;stroke-linejoin:miter;" /><path d="M 144.0,86.39999999999999 L 258.3,86.4 L 363.6,86.4" style="stroke:black;fill:none;stroke-width:2.0;stroke-dasharray:-;stroke-linecap:round;stroke-linejoin:round;" /><path d="M 370.6 86.4 L 363.6 89.1 L 363.6 83.7 Z" style="stroke:black;fill:black;stroke-linecap:butt;stroke-linejoin:miter;" /><path d="M 440.99999999999994,43.199999999999996 L 462.6,43.2 L 475.2,43.2" style="stroke:black;fill:none;stroke-width:2.0;stroke-dasharray:-;stroke-linecap:round;stroke-linejoin:round;" /><path d="M 482.2 43.2 L 475.2 45.9 L 475.2 40.5 Z" style="stroke:black;fill:black;stroke-linecap:butt;stroke-linejoin:miter;" /><text x="43.199999999999996" y="-19.5" dominant-baseline="central" fill="black" font-size="13" font-family="sans" text-anchor="middle"><tspan x="43.199999999999996" dy="13">SINE[ph2]</tspan><tspan x="43.199999999999996" dy="13">modulator</tspan></text><text x="-50.4" y="-13.0" dominant-baseline="central" fill="black" font-size="13" font-family="sans" text-anchor="end"><tspan x="-50.4" dy="13">ph2</tspan></text><text x="121.5" y="-47.599999999999994" dominant-baseline="ideographic" fill="black" font-size="13" font-family="sans" text-anchor="middle"><tspan x="121.5" dy="13">× depth</tspan><tspan x="121.5" dy="13">(FM index)</tspan></text><text x="228.6" y="-66.3" dominant-baseline="central" fill="black" font-size="13" font-family="sans" text-anchor="middle"><tspan x="228.6" dy="13">carrier phase</tspan><tspan x="228.6" dy="13">(main osc)</tspan></text><text x="270.0" y="-19.5" dominant-baseline="central" fill="black" font-size="13" font-family="sans" text-anchor="middle"><tspan x="270.0" dy="13">voice_wave</tspan><tspan x="270.0" dy="13">(carrier)</tspan></text><text x="126.0" y="96.8" dominant-baseline="hanging" fill="black" font-size="13" font-family="sans" text-anchor="middle"><tspan x="126.0" dy="13">ring</tspan><tspan x="126.0" dy="13">× main</tspan></text><text x="406.7999999999999" y="23.699999999999996" dominant-baseline="central" fill="black" font-size="13" font-family="sans" text-anchor="middle"><tspan x="406.7999999999999" dy="13">blend</tspan><tspan x="406.7999999999999" dy="13">(xmode)</tspan></text><text x="487.7999999999999" y="30.199999999999996" dominant-baseline="central" fill="black" font-size="13" font-family="sans" text-anchor="start"><tspan x="487.7999999999999" dy="13">o12</tspan></text><circle cx="108" cy="-0" r="2.7" style="stroke:black;fill:black;stroke-width:2.0;stroke-dasharray:-;" /><circle cx="336.6" cy="-0" r="2.7" style="stroke:black;fill:black;stroke-width:2.0;stroke-dasharray:-;" /></svg>