<svg xmlns="http://www.w3.org/2000/svg" xmlns:xlink="http://www.w3.org/1999/xlink" xml:lang="en" height="159.0pt" width="381.41599999999994pt" viewBox="-93.50799999999995 -24.400000000000002 381.41599999999994 159.0"><circle cx="0" cy="-0" r="18" style="stroke:black;fill:none;stroke-width:2.0;stroke-dasharray:-;" /><path d="M 0.0,-7.2 L 0,7.2" style="stroke:black;fill:none;stroke-width:2.0;stroke-dasharray:-;stroke-linecap:round;stroke-linejoin:round;" /><path d="M -7.2,-0.0 L 7.2,-0" style="stroke:black;fill:none;stroke-width:2.0;stroke-dasharray:-;stroke-linecap:round;stroke-linejoin:round;" /><path d="M -50.4,-0.0 L -34.2,-0 L -27,-0" style="stroke:black;fill:none;stroke-width:2.0;stroke-dasharray:-;stroke-linecap:round;stroke-linejoin:round;" /><path d="M -20 0 L -27 2.7 L -27 -2.7 Z" style="stroke:black;fill:black;stroke-linecap:butt;stroke-linejoin:miter;" /><path d="M 18.0,-0.0 L 32.4,-0 L 37.8,-0" style="stroke:black;fill:none;stroke-width:2.0;stroke-dasharray:-;stroke-linecap:round;stroke-linejoin:round;" /><path d="M 44.8 0 L 37.8 2.7 L 37.8 -2.7 Z" style="stroke:black;fill:black;stroke-linecap:butt;stroke-linejoin:miter;" /><path d="M 46.800000000000004,-0.0 L 46.8,-19.8 L 154.8,-19.8 L 154.8,19.8 L 46.8,19.8 L 46.8,-0" style="stroke:black;fill:none;stroke-width:2.0;stroke-dasharray:-;stroke-linecap:round;stroke-linejoin:round;" /><path d="M 154.79999999999998,-0.0 L 189,-0 L 214.2,-0" style="stroke:black;fill:none;stroke-width:2.0;stroke-dasharray:-;stroke-linecap:round;stroke-linejoin:round;" /><path d="M 221.2 0 L 214.2 2.7 L 214.2 -2.7 Z" style="stroke:black;fill:black;stroke-linecap:butt;stroke-linejoin:miter;" /><path d="M 154.79999999999998,-0.0 L 154.8,36 L 154.8,72" style="stroke:black;fill:none;stroke-width:2.0;stroke-dasharray:-;stroke-linecap:round;stroke-linejoin:round;" /><path d="M 154.79999999999998,72.0 L 154.8,54 L 127.8,72 L 154.8,90 L 154.8,72" style="stroke:black;fill:none;stroke-width:2.0;stroke-dasharray:-;stroke-linecap:round;stroke-linejoin:round;" /><path d="M 127.8,72.0 L 63.9,72 L 0,72" style="stroke:black;fill:none;stroke-width:2.0;stroke-dasharray:-;stroke-linecap:round;stroke-linejoin:round;" /><path d="M 0.0,72.0 L 0,45 L 0,27" style="stroke:black;fill:none;stroke-width:2.0;stroke-dasharray:-;stroke-linecap:round;stroke-linejoin:round;" /><path d="M 0 20 L 2.7 27 L -2.7 27 Z" style="stroke:black;fill:black;stroke-linecap:butt;stroke-linejoin:miter;" /><text x="-54.0" y="-13.0" dominant-baseline="central" fill="black" font-size="13" font-family="sans" text-anchor="end"><tspan x="-54.0" dy="13">x</tspan></text><text x="100.8" y="-19.5" dominant-baseline="central" fill="black" font-size="13" font-family="sans" text-anchor="middle"><tspan x="100.8" dy="13">z⁻ᴰ  (BRAM)</tspan><tspan x="100.8" dy="13">long tap, CC82</tspan></text><text x="226.79999999999995" y="-19.5" dominant-baseline="central" fill="black" font-size="13" font-family="sans" text-anchor="start"><tspan x="226.79999999999995" dy="13">echo out</tspan><tspan x="226.79999999999995" dy="13">(× CC95)</tspan></text><text x="141.29999999999998" y="81.32000000000001" dominant-baseline="hanging" fill="black" font-size="13" font-family="sans" text-anchor="middle"><tspan x="141.29999999999998" dy="13">× ½</tspan></text><text x="97.19999999999999" y="97.5" dominant-baseline="central" fill="black" font-size="13" font-family="sans" text-anchor="middle"><tspan x="97.19999999999999" dy="13">single-channel view — feedback ½.  In stereo, L writes R's delayed</tspan><tspan x="97.19999999999999" dy="13">sample and vice-versa → the echo ping-pongs across the field.</tspan></text><circle cx="154.8" cy="-0" r="2.7" style="stroke:black;fill:black;stroke-width:2.0;stroke-dasharray:-;" /></svg>