<svg xmlns="http://www.w3.org/2000/svg" xmlns:xlink="http://www.w3.org/1999/xlink" xml:lang="en" height="182.0pt" width="574.1119999999999pt" viewBox="-32.608000000000004 -91.0 574.1119999999999 182.0"><circle cx="244.8" cy="-0" r="18" style="stroke:black;fill:none;stroke-width:2.0;stroke-dasharray:-;" /><path d="M 0.0,-0.0 L 18,-0 L 36,-0" style="stroke:black;fill:none;stroke-width:2.0;stroke-dasharray:-;stroke-linecap:round;stroke-linejoin:round;" /><path d="M 86.39999999999999,-72.0 L 86.4,-86.4 L 165.6,-86.4 L 165.6,-57.6 L 86.4,-57.6 L 86.4,-72" style="stroke:black;fill:none;stroke-width:2.0;stroke-dasharray:-;stroke-linecap:round;stroke-linejoin:round;" /><path d="M 36.0,-0.0 L 36,-36 L 36,-72" style="stroke:black;fill:none;stroke-width:2.0;stroke-dasharray:-;stroke-linecap:round;stroke-linejoin:round;" /><path d="M 36.0,-72.0 L 61.2,-72 L 77.4,-72" style="stroke:black;fill:none;stroke-width:2.0;stroke-dasharray:-;stroke-linecap:round;stroke-linejoin:round;" /><path d="M 84.4 -72 L 77.4 -69.3 L 77.4 -74.7 Z" style="stroke:black;fill:black;stroke-linecap:butt;stroke-linejoin:miter;" /><path d="M 86.39999999999999,-25.2 L 86.4,-39.6 L 165.6,-39.6 L 165.6,-10.8 L 86.4,-10.8 L 86.4,-25.2" style="stroke:black;fill:none;stroke-width:2.0;stroke-dasharray:-;stroke-linecap:round;stroke-linejoin:round;" /><path d="M 36.0,-0.0 L 36,-12.6 L 36,-25.2" style="stroke:black;fill:none;stroke-width:2.0;stroke-dasharray:-;stroke-linecap:round;stroke-linejoin:round;" /><path d="M 36.0,-25.2 L 61.2,-25.2 L 77.4,-25.2" style="stroke:black;fill:none;stroke-width:2.0;stroke-dasharray:-;stroke-linecap:round;stroke-linejoin:round;" /><path d="M 84.4 -25.2 L 77.4 -22.5 L 77.4 -27.9 Z" style="stroke:black;fill:black;stroke-linecap:butt;stroke-linejoin:miter;" /><path d="M 86.39999999999999,25.2 L 86.4,10.8 L 165.6,10.8 L 165.6,39.6 L 86.4,39.6 L 86.4,25.2" style="stroke:black;fill:none;stroke-width:2.0;stroke-dasharray:-;stroke-linecap:round;stroke-linejoin:round;" /><path d="M 36.0,-0.0 L 36,12.6 L 36,25.2" style="stroke:black;fill:none;stroke-width:2.0;stroke-dasharray:-;stroke-linecap:round;stroke-linejoin:round;" /><path d="M 36.0,25.2 L 61.2,25.2 L 77.4,25.2" style="stroke:black;fill:none;stroke-width:2.0;stroke-dasharray:-;stroke-linecap:round;stroke-linejoin:round;" /><path d="M 84.4 25.2 L 77.4 27.9 L 77.4 22.5 Z" style="stroke:black;fill:black;stroke-linecap:butt;stroke-linejoin:miter;" /><path d="M 86.39999999999999,72.0 L 86.4,57.6 L 165.6,57.6 L 165.6,86.4 L 86.4,86.4 L 86.4,72" style="stroke:black;fill:none;stroke-width:2.0;stroke-dasharray:-;stroke-linecap:round;stroke-linejoin:round;" /><path d="M 36.0,-0.0 L 36,36 L 36,72" style="stroke:black;fill:none;stroke-width:2.0;stroke-dasharray:-;stroke-linecap:round;stroke-linejoin:round;" /><path d="M 36.0,72.0 L 61.2,72 L 77.4,72" style="stroke:black;fill:none;stroke-width:2.0;stroke-dasharray:-;stroke-linecap:round;stroke-linejoin:round;" /><path d="M 84.4 72 L 77.4 74.7 L 77.4 69.3 Z" style="stroke:black;fill:black;stroke-linecap:butt;stroke-linejoin:miter;" /><path d="M 165.6,-72.0 L 196.2,-72 L 226.8,-72" style="stroke:black;fill:none;stroke-width:2.0;stroke-dasharray:-;stroke-linecap:round;stroke-linejoin:round;" /><path d="M 226.79999999999998,-72.0 L 226.8,-36 L 226.8,-9" style="stroke:black;fill:none;stroke-width:2.0;stroke-dasharray:-;stroke-linecap:round;stroke-linejoin:round;" /><path d="M 226.8 -2 L 224.1 -9 L 229.5 -9 Z" style="stroke:black;fill:black;stroke-linecap:butt;stroke-linejoin:miter;" /><path d="M 165.6,-25.2 L 196.2,-25.2 L 226.8,-25.2" style="stroke:black;fill:none;stroke-width:2.0;stroke-dasharray:-;stroke-linecap:round;stroke-linejoin:round;" /><path d="M 226.79999999999998,-25.2 L 226.8,-12.6 L 226.8,-9" style="stroke:black;fill:none;stroke-width:2.0;stroke-dasharray:-;stroke-linecap:round;stroke-linejoin:round;" /><path d="M 226.8 -2 L 224.1 -9 L 229.5 -9 Z" style="stroke:black;fill:black;stroke-linecap:butt;stroke-linejoin:miter;" /><path d="M 165.6,25.2 L 196.2,25.2 L 226.8,25.2" style="stroke:black;fill:none;stroke-width:2.0;stroke-dasharray:-;stroke-linecap:round;stroke-linejoin:round;" /><path d="M 226.79999999999998,25.2 L 226.8,12.6 L 226.8,9" style="stroke:black;fill:none;stroke-width:2.0;stroke-dasharray:-;stroke-linecap:round;stroke-linejoin:round;" /><path d="M 226.8 2 L 229.5 9 L 224.1 9 Z" style="stroke:black;fill:black;stroke-linecap:butt;stroke-linejoin:miter;" /><path d="M 165.6,72.0 L 196.2,72 L 226.8,72" style="stroke:black;fill:none;stroke-width:2.0;stroke-dasharray:-;stroke-linecap:round;stroke-linejoin:round;" /><path d="M 226.79999999999998,72.0 L 226.8,36 L 226.8,9" style="stroke:black;fill:none;stroke-width:2.0;stroke-dasharray:-;stroke-linecap:round;stroke-linejoin:round;" /><path d="M 226.8 2 L 229.5 9 L 224.1 9 Z" style="stroke:black;fill:black;stroke-linecap:butt;stroke-linejoin:miter;" /><path d="M 262.8,-0.0 L 282.6,-0 L 293.4,-0" style="stroke:black;fill:none;stroke-width:2.0;stroke-dasharray:-;stroke-linecap:round;stroke-linejoin:round;" /><path d="M 300.4 0 L 293.4 2.7 L 293.4 -2.7 Z" style="stroke:black;fill:black;stroke-linecap:butt;stroke-linejoin:miter;" /><path d="M 302.40000000000003,-0.0 L 302.4,-16.2 L 374.4,-16.2 L 374.4,16.2 L 302.4,16.2 L 302.4,-0" style="stroke:black;fill:none;stroke-width:2.0;stroke-dasharray:-;stroke-linecap:round;stroke-linejoin:round;" /><path d="M 374.40000000000003,-0.0 L 387,-0 L 390.6,-0" style="stroke:black;fill:none;stroke-width:2.0;stroke-dasharray:-;stroke-linecap:round;stroke-linejoin:round;" /><path d="M 397.6 0 L 390.6 2.7 L 390.6 -2.7 Z" style="stroke:black;fill:black;stroke-linecap:butt;stroke-linejoin:miter;" /><path d="M 399.59999999999997,-0.0 L 399.6,-16.2 L 471.6,-16.2 L 471.6,16.2 L 399.6,16.2 L 399.6,-0" style="stroke:black;fill:none;stroke-width:2.0;stroke-dasharray:-;stroke-linecap:round;stroke-linejoin:round;" /><path d="M 471.59999999999997,-0.0 L 493.2,-0 L 505.8,-0" style="stroke:black;fill:none;stroke-width:2.0;stroke-dasharray:-;stroke-linecap:round;stroke-linejoin:round;" /><path d="M 512.8 0 L 505.8 2.7 L 505.8 -2.7 Z" style="stroke:black;fill:black;stroke-linecap:butt;stroke-linejoin:miter;" /><text x="-3.599999999999999" y="-12.0" dominant-baseline="central" fill="black" font-size="12" font-family="sans" text-anchor="end"><tspan x="-3.599999999999999" dy="12">in ÷8</tspan></text><text x="126.0" y="-84.0" dominant-baseline="central" fill="black" font-size="12" font-family="sans" text-anchor="middle"><tspan x="126.0" dy="12">comb 810</tspan></text><text x="126.0" y="-37.2" dominant-baseline="central" fill="black" font-size="12" font-family="sans" text-anchor="middle"><tspan x="126.0" dy="12">comb 878</tspan></text><text x="126.0" y="13.2" dominant-baseline="central" fill="black" font-size="12" font-family="sans" text-anchor="middle"><tspan x="126.0" dy="12">comb 940</tspan></text><text x="126.0" y="60.0" dominant-baseline="central" fill="black" font-size="12" font-family="sans" text-anchor="middle"><tspan x="126.0" dy="12">comb 1012</tspan></text><text x="243.0" y="-14.0" dominant-baseline="central" fill="black" font-size="14" font-family="sans" text-anchor="middle"><tspan x="243.0" dy="14">Σ</tspan></text><text x="338.40000000000003" y="-12.0" dominant-baseline="central" fill="black" font-size="12" font-family="sans" text-anchor="middle"><tspan x="338.40000000000003" dy="12">all-pass 348</tspan></text><text x="435.59999999999997" y="-12.0" dominant-baseline="central" fill="black" font-size="12" font-family="sans" text-anchor="middle"><tspan x="435.59999999999997" dy="12">all-pass 116</tspan></text><text x="518.4" y="-12.0" dominant-baseline="central" fill="black" font-size="12" font-family="sans" text-anchor="start"><tspan x="518.4" dy="12">wet</tspan></text><circle cx="36" cy="-0" r="2.7" style="stroke:black;fill:black;stroke-width:2.0;stroke-dasharray:-;" /></svg>