<svg xmlns="http://www.w3.org/2000/svg" xmlns:xlink="http://www.w3.org/1999/xlink" xml:lang="en" height="128.0pt" width="789.104pt" viewBox="-79.11999999999999 -22.6 789.104 128.0"><path d="M 0.0,-0.0 L 0,-18 L 75.6,-18 L 75.6,18 L 0,18 L 0,-0" style="stroke:black;fill:none;stroke-width:2.0;stroke-dasharray:-;stroke-linecap:round;stroke-linejoin:round;" /><path d="M 108.0,-0.0 L 108,-18 L 183.6,-18 L 183.6,18 L 108,18 L 108,-0" style="stroke:black;fill:none;stroke-width:2.0;stroke-dasharray:-;stroke-linecap:round;stroke-linejoin:round;" /><path d="M 75.60000000000001,-0.0 L 91.8,-0 L 99,-0" style="stroke:black;fill:none;stroke-width:2.0;stroke-dasharray:-;stroke-linecap:round;stroke-linejoin:round;" /><path d="M 106 0 L 99 2.7 L 99 -2.7 Z" style="stroke:black;fill:black;stroke-linecap:butt;stroke-linejoin:miter;" /><path d="M 216.0,-0.0 L 216,-18 L 291.6,-18 L 291.6,18 L 216,18 L 216,-0" style="stroke:black;fill:none;stroke-width:2.0;stroke-dasharray:-;stroke-linecap:round;stroke-linejoin:round;" /><path d="M 183.6,-0.0 L 199.8,-0 L 207,-0" style="stroke:black;fill:none;stroke-width:2.0;stroke-dasharray:-;stroke-linecap:round;stroke-linejoin:round;" /><path d="M 214 0 L 207 2.7 L 207 -2.7 Z" style="stroke:black;fill:black;stroke-linecap:butt;stroke-linejoin:miter;" /><path d="M 324.0,-0.0 L 324,-18 L 399.6,-18 L 399.6,18 L 324,18 L 324,-0" style="stroke:black;fill:none;stroke-width:2.0;stroke-dasharray:-;stroke-linecap:round;stroke-linejoin:round;" /><path d="M 291.59999999999997,-0.0 L 307.8,-0 L 315,-0" style="stroke:black;fill:none;stroke-width:2.0;stroke-dasharray:-;stroke-linecap:round;stroke-linejoin:round;" /><path d="M 322 0 L 315 2.7 L 315 -2.7 Z" style="stroke:black;fill:black;stroke-linecap:butt;stroke-linejoin:miter;" /><path d="M 432.0,-0.0 L 432,-18 L 507.6,-18 L 507.6,18 L 432,18 L 432,-0" style="stroke:black;fill:none;stroke-width:2.0;stroke-dasharray:-;stroke-linecap:round;stroke-linejoin:round;" /><path d="M 399.59999999999997,-0.0 L 415.8,-0 L 423,-0" style="stroke:black;fill:none;stroke-width:2.0;stroke-dasharray:-;stroke-linecap:round;stroke-linejoin:round;" /><path d="M 430 0 L 423 2.7 L 423 -2.7 Z" style="stroke:black;fill:black;stroke-linecap:butt;stroke-linejoin:miter;" /><path d="M 540.0,-0.0 L 540,-18 L 615.6,-18 L 615.6,18 L 540,18 L 540,-0" style="stroke:black;fill:none;stroke-width:2.0;stroke-dasharray:-;stroke-linecap:round;stroke-linejoin:round;" /><path d="M 507.59999999999997,-0.0 L 523.8,-0 L 531,-0" style="stroke:black;fill:none;stroke-width:2.0;stroke-dasharray:-;stroke-linecap:round;stroke-linejoin:round;" /><path d="M 538 0 L 531 2.7 L 531 -2.7 Z" style="stroke:black;fill:black;stroke-linecap:butt;stroke-linejoin:miter;" /><path d="M -46.800000000000004,-0.0 L -23.4,-0 L -9,-0" style="stroke:black;fill:none;stroke-width:2.0;stroke-dasharray:-;stroke-linecap:round;stroke-linejoin:round;" /><path d="M -2 0 L -9 2.7 L -9 -2.7 Z" style="stroke:black;fill:black;stroke-linecap:butt;stroke-linejoin:miter;" /><path d="M 615.6,-0.0 L 639,-0 L 653.4,-0" style="stroke:black;fill:none;stroke-width:2.0;stroke-dasharray:-;stroke-linecap:round;stroke-linejoin:round;" /><path d="M 660.4 0 L 653.4 2.7 L 653.4 -2.7 Z" style="stroke:black;fill:black;stroke-linecap:butt;stroke-linejoin:miter;" /><path d="M 435.6,86.39999999999999 L 435.6,72 L 504,72 L 504,100.8 L 435.6,100.8 L 435.6,86.4" style="stroke:black;fill:none;stroke-width:2.0;stroke-dasharray:-;stroke-linecap:round;stroke-linejoin:round;" /><path d="M 469.8,72.0 L 469.8,45 L 469.8,27" style="stroke:black;fill:none;stroke-width:2.0;stroke-dasharray:-;stroke-linecap:round;stroke-linejoin:round;" /><path d="M 469.8 20 L 472.5 27 L 467.1 27 Z" style="stroke:black;fill:black;stroke-linecap:butt;stroke-linejoin:miter;" /><path d="M 327.6,86.39999999999999 L 327.6,72 L 396,72 L 396,100.8 L 327.6,100.8 L 327.6,86.4" style="stroke:black;fill:none;stroke-width:2.0;stroke-dasharray:-;stroke-linecap:round;stroke-linejoin:round;" /><path d="M 361.8,72.0 L 361.8,45 L 361.8,27" style="stroke:black;fill:none;stroke-width:2.0;stroke-dasharray:-;stroke-linecap:round;stroke-linejoin:round;" /><path d="M 361.8 20 L 364.5 27 L 359.1 27 Z" style="stroke:black;fill:black;stroke-linecap:butt;stroke-linejoin:miter;" /><path d="M 3.600000000000003,86.39999999999999 L 3.6,72 L 72,72 L 72,100.8 L 3.6,100.8 L 3.6,86.4" style="stroke:black;fill:none;stroke-width:2.0;stroke-dasharray:-;stroke-linecap:round;stroke-linejoin:round;" /><path d="M 37.800000000000004,72.0 L 37.8,45 L 37.8,27" style="stroke:black;fill:none;stroke-width:2.0;stroke-dasharray:-;stroke-linecap:round;stroke-linejoin:round;" /><path d="M 37.8 20 L 40.5 27 L 35.1 27 Z" style="stroke:black;fill:black;stroke-linecap:butt;stroke-linejoin:miter;" /><text x="37.800000000000004" y="-18.0" dominant-baseline="central" fill="black" font-size="12" font-family="sans" text-anchor="middle"><tspan x="37.800000000000004" dy="12">DDS osc(s)</tspan><tspan x="37.800000000000004" dy="12">+ waveform</tspan></text><text x="145.79999999999998" y="-18.0" dominant-baseline="central" fill="black" font-size="12" font-family="sans" text-anchor="middle"><tspan x="145.79999999999998" dy="12">cross-mod</tspan><tspan x="145.79999999999998" dy="12">FM / ring</tspan></text><text x="253.79999999999998" y="-12.0" dominant-baseline="central" fill="black" font-size="12" font-family="sans" text-anchor="middle"><tspan x="253.79999999999998" dy="12">+ sub-osc</tspan></text><text x="361.8" y="-18.0" dominant-baseline="central" fill="black" font-size="12" font-family="sans" text-anchor="middle"><tspan x="361.8" dy="12">resonant</tspan><tspan x="361.8" dy="12">SVF</tspan></text><text x="469.8" y="-18.0" dominant-baseline="central" fill="black" font-size="12" font-family="sans" text-anchor="middle"><tspan x="469.8" dy="12">VCA</tspan><tspan x="469.8" dy="12">env·vel·trem</tspan></text><text x="577.8000000000001" y="-18.0" dominant-baseline="central" fill="black" font-size="12" font-family="sans" text-anchor="middle"><tspan x="577.8000000000001" dy="12">serialized</tspan><tspan x="577.8000000000001" dy="12">mix</tspan></text><text x="-50.4" y="-12.0" dominant-baseline="central" fill="black" font-size="12" font-family="sans" text-anchor="end"><tspan x="-50.4" dy="12">note</tspan></text><text x="666.0000000000001" y="-12.0" dominant-baseline="central" fill="black" font-size="12" font-family="sans" text-anchor="start"><tspan x="666.0000000000001" dy="12">sample</tspan></text><text x="469.8" y="74.39999999999999" dominant-baseline="central" fill="black" font-size="12" font-family="sans" text-anchor="middle"><tspan x="469.8" dy="12">amp ADSR</tspan></text><text x="361.8" y="74.39999999999999" dominant-baseline="central" fill="black" font-size="12" font-family="sans" text-anchor="middle"><tspan x="361.8" dy="12">filter ADSR</tspan></text><text x="37.800000000000004" y="68.39999999999999" dominant-baseline="central" fill="black" font-size="12" font-family="sans" text-anchor="middle"><tspan x="37.800000000000004" dy="12">part LFO</tspan><tspan x="37.800000000000004" dy="12">(→ OSC + SVF)</tspan></text></svg>