<svg xmlns="http://www.w3.org/2000/svg" xmlns:xlink="http://www.w3.org/1999/xlink" xml:lang="en" height="224.89999999999998pt" width="560.2639999999999pt" viewBox="-111.11800000000001 -44.6 560.2639999999999 224.89999999999998"><circle cx="0" cy="-0" r="18" style="stroke:black;fill:none;stroke-width:2.0;stroke-dasharray:-;" /><circle cx="0" cy="86.4" r="18" style="stroke:black;fill:none;stroke-width:2.0;stroke-dasharray:-;" /><path d="M 0.0,-7.2 L 0,7.2" style="stroke:black;fill:none;stroke-width:2.0;stroke-dasharray:-;stroke-linecap:round;stroke-linejoin:round;" /><path d="M -7.2,-0.0 L 7.2,-0" style="stroke:black;fill:none;stroke-width:2.0;stroke-dasharray:-;stroke-linecap:round;stroke-linejoin:round;" /><path d="M -57.6,-0.0 L -37.8,-0 L -27,-0" style="stroke:black;fill:none;stroke-width:2.0;stroke-dasharray:-;stroke-linecap:round;stroke-linejoin:round;" /><path d="M -20 0 L -27 2.7 L -27 -2.7 Z" style="stroke:black;fill:black;stroke-linecap:butt;stroke-linejoin:miter;" /><path d="M 18.0,-0.0 L 30.6,-0 L 43.2,-0" style="stroke:black;fill:none;stroke-width:2.0;stroke-dasharray:-;stroke-linecap:round;stroke-linejoin:round;" /><path d="M 43.199999999999996,-0.0 L 43.2,-12.6 L 43.2,-25.2" style="stroke:black;fill:none;stroke-width:2.0;stroke-dasharray:-;stroke-linecap:round;stroke-linejoin:round;" /><path d="M 61.199999999999996,-0.0 L 61.2,18 L 88.2,-0 L 61.2,-18 L 61.2,-0" style="stroke:black;fill:none;stroke-width:2.0;stroke-dasharray:-;stroke-linecap:round;stroke-linejoin:round;" /><path d="M 43.199999999999996,-0.0 L 52.2,-0 L 61.2,-0" style="stroke:black;fill:none;stroke-width:2.0;stroke-dasharray:-;stroke-linecap:round;stroke-linejoin:round;" /><path d="M 106.2,-0.0 L 106.2,-18 L 189,-18 L 189,18 L 106.2,18 L 106.2,-0" style="stroke:black;fill:none;stroke-width:2.0;stroke-dasharray:-;stroke-linecap:round;stroke-linejoin:round;" /><path d="M 189.0,-0.0 L 199.8,-0 L 210.6,-0" style="stroke:black;fill:none;stroke-width:2.0;stroke-dasharray:-;stroke-linecap:round;stroke-linejoin:round;" /><path d="M 88.2,-0.0 L 97.2,-0 L 97.2,-0" style="stroke:black;fill:none;stroke-width:2.0;stroke-dasharray:-;stroke-linecap:round;stroke-linejoin:round;" /><path d="M 104.2 0 L 97.2 2.7 L 97.2 -2.7 Z" style="stroke:black;fill:black;stroke-linecap:butt;stroke-linejoin:miter;" /><path d="M 210.6,-0.0 L 210.6,-12.6 L 210.6,-25.2" style="stroke:black;fill:none;stroke-width:2.0;stroke-dasharray:-;stroke-linecap:round;stroke-linejoin:round;" /><path d="M 228.6,-0.0 L 228.6,18 L 255.6,-0 L 228.6,-18 L 228.6,-0" style="stroke:black;fill:none;stroke-width:2.0;stroke-dasharray:-;stroke-linecap:round;stroke-linejoin:round;" /><path d="M 210.6,-0.0 L 219.6,-0 L 228.6,-0" style="stroke:black;fill:none;stroke-width:2.0;stroke-dasharray:-;stroke-linecap:round;stroke-linejoin:round;" /><path d="M 273.59999999999997,-0.0 L 273.6,-18 L 356.4,-18 L 356.4,18 L 273.6,18 L 273.6,-0" style="stroke:black;fill:none;stroke-width:2.0;stroke-dasharray:-;stroke-linecap:round;stroke-linejoin:round;" /><path d="M 255.6,-0.0 L 264.6,-0 L 264.6,-0" style="stroke:black;fill:none;stroke-width:2.0;stroke-dasharray:-;stroke-linecap:round;stroke-linejoin:round;" /><path d="M 271.6 0 L 264.6 2.7 L 264.6 -2.7 Z" style="stroke:black;fill:black;stroke-linecap:butt;stroke-linejoin:miter;" /><path d="M 356.4,-0.0 L 367.2,-0 L 378,-0" style="stroke:black;fill:none;stroke-width:2.0;stroke-dasharray:-;stroke-linecap:round;stroke-linejoin:round;" /><path d="M 377.99999999999994,-0.0 L 401.4,-0 L 415.8,-0" style="stroke:black;fill:none;stroke-width:2.0;stroke-dasharray:-;stroke-linecap:round;stroke-linejoin:round;" /><path d="M 422.8 0 L 415.8 2.7 L 415.8 -2.7 Z" style="stroke:black;fill:black;stroke-linecap:butt;stroke-linejoin:miter;" /><path d="M 0.0,79.19999999999999 L 0,93.6" style="stroke:black;fill:none;stroke-width:2.0;stroke-dasharray:-;stroke-linecap:round;stroke-linejoin:round;" /><path d="M -7.2,86.39999999999999 L 7.2,86.4" style="stroke:black;fill:none;stroke-width:2.0;stroke-dasharray:-;stroke-linecap:round;stroke-linejoin:round;" /><path d="M 0.0,68.39999999999999 L 0,43.2 L 0,27" style="stroke:black;fill:none;stroke-width:2.0;stroke-dasharray:-;stroke-linecap:round;stroke-linejoin:round;" /><path d="M 0 20 L 2.7 27 L -2.7 27 Z" style="stroke:black;fill:black;stroke-linecap:butt;stroke-linejoin:miter;" /><path d="M 210.6,-0.0 L 210.6,43.2 L 210.6,86.4" style="stroke:black;fill:none;stroke-width:2.0;stroke-dasharray:-;stroke-linecap:round;stroke-linejoin:round;" /><path d="M 210.6,86.39999999999999 L 210.6,68.4 L 183.6,86.4 L 210.6,104.4 L 210.6,86.4" style="stroke:black;fill:none;stroke-width:2.0;stroke-dasharray:-;stroke-linecap:round;stroke-linejoin:round;" /><path d="M 183.6,86.39999999999999 L 100.8,86.4 L 27,86.4" style="stroke:black;fill:none;stroke-width:2.0;stroke-dasharray:-;stroke-linecap:round;stroke-linejoin:round;" /><path d="M 20 86.4 L 27 83.7 L 27 89.1 Z" style="stroke:black;fill:black;stroke-linecap:butt;stroke-linejoin:miter;" /><path d="M 377.99999999999994,-0.0 L 378,70.2 L 378,140.4" style="stroke:black;fill:none;stroke-width:2.0;stroke-dasharray:-;stroke-linecap:round;stroke-linejoin:round;" /><path d="M 377.99999999999994,140.4 L 158.4,140.4 L -61.2,140.4" style="stroke:black;fill:none;stroke-width:2.0;stroke-dasharray:-;stroke-linecap:round;stroke-linejoin:round;" /><path d="M -61.199999999999996,140.4 L -61.2,113.4 L -61.2,86.4" style="stroke:black;fill:none;stroke-width:2.0;stroke-dasharray:-;stroke-linecap:round;stroke-linejoin:round;" /><path d="M -61.199999999999996,86.39999999999999 L -39.6,86.4 L -27,86.4" style="stroke:black;fill:none;stroke-width:2.0;stroke-dasharray:-;stroke-linecap:round;stroke-linejoin:round;" /><path d="M -20 86.4 L -27 89.1 L -27 83.7 Z" style="stroke:black;fill:black;stroke-linecap:butt;stroke-linejoin:miter;" /><text x="-61.2" y="-13.0" dominant-baseline="central" fill="black" font-size="13" font-family="sans" text-anchor="end"><tspan x="-61.2" dy="13">x (in ÷4)</tspan></text><text x="43.199999999999996" y="-40.0" dominant-baseline="ideographic" fill="black" font-size="13" font-family="sans" text-anchor="middle"><tspan x="43.199999999999996" dy="13">HP</tspan></text><text x="74.7" y="-33.879999999999995" dominant-baseline="ideographic" fill="black" font-size="13" font-family="sans" text-anchor="middle"><tspan x="74.7" dy="13">× f</tspan></text><text x="147.6" y="-19.5" dominant-baseline="central" fill="black" font-size="13" font-family="sans" text-anchor="middle"><tspan x="147.6" dy="13">∫₁  (z⁻¹)</tspan><tspan x="147.6" dy="13">band += f·high</tspan></text><text x="210.6" y="-40.0" dominant-baseline="ideographic" fill="black" font-size="13" font-family="sans" text-anchor="middle"><tspan x="210.6" dy="13">BP</tspan></text><text x="242.1" y="-33.879999999999995" dominant-baseline="ideographic" fill="black" font-size="13" font-family="sans" text-anchor="middle"><tspan x="242.1" dy="13">× f</tspan></text><text x="315.0" y="-19.5" dominant-baseline="central" fill="black" font-size="13" font-family="sans" text-anchor="middle"><tspan x="315.0" dy="13">∫₂  (z⁻¹)</tspan><tspan x="315.0" dy="13">low += f·band</tspan></text><text x="428.4" y="-13.0" dominant-baseline="central" fill="black" font-size="13" font-family="sans" text-anchor="start"><tspan x="428.4" dy="13">LP</tspan></text><text x="3.196328145774592e-15" y="3.1999999999999993" dominant-baseline="ideographic" fill="black" font-size="13" font-family="sans" text-anchor="middle"><tspan x="3.196328145774592e-15" dy="13">−</tspan></text><text x="197.1" y="95.0" dominant-baseline="hanging" fill="black" font-size="13" font-family="sans" text-anchor="middle"><tspan x="197.1" dy="13">× q</tspan></text><text x="-63.0" y="73.39999999999999" dominant-baseline="central" fill="black" font-size="13" font-family="sans" text-anchor="end"><tspan x="-63.0" dy="13">low</tspan></text><text x="192.6" y="156.20000000000002" dominant-baseline="central" fill="black" font-size="13" font-family="sans" text-anchor="middle"><tspan x="192.6" dy="13">high = x − low − q·band   •   outputs: LP / HP / BP / notch (= LP+HP)</tspan></text><circle cx="43.2" cy="-0" r="2.7" style="stroke:black;fill:black;stroke-width:2.0;stroke-dasharray:-;" /><circle cx="210.6" cy="-0" r="2.7" style="stroke:black;fill:black;stroke-width:2.0;stroke-dasharray:-;" /><circle cx="378" cy="-0" r="2.7" style="stroke:black;fill:black;stroke-width:2.0;stroke-dasharray:-;" /></svg>