<svg xmlns="http://www.w3.org/2000/svg" xmlns:xlink="http://www.w3.org/1999/xlink" xml:lang="en" height="195.7pt" width="388.99099999999993pt" viewBox="-89.08899999999997 -130.6 388.99099999999993 195.7"><path d="M -43.199999999999996,-0.0 L -21.6,-0 L -9,-0" style="stroke:black;fill:none;stroke-width:2.0;stroke-dasharray:-;stroke-linecap:round;stroke-linejoin:round;" /><path d="M -2 0 L -9 2.7 L -9 -2.7 Z" style="stroke:black;fill:black;stroke-linecap:butt;stroke-linejoin:miter;" /><path d="M 0.0,-0.0 L 0,-25.2 L 100.8,-25.2 L 100.8,25.2 L 0,25.2 L 0,-0" style="stroke:black;fill:none;stroke-width:2.0;stroke-dasharray:-;stroke-linecap:round;stroke-linejoin:round;" /><path d="M 100.8,-0.0 L 126,-0 L 142.2,-0" style="stroke:black;fill:none;stroke-width:2.0;stroke-dasharray:-;stroke-linecap:round;stroke-linejoin:round;" /><path d="M 149.2 0 L 142.2 2.7 L 142.2 -2.7 Z" style="stroke:black;fill:black;stroke-linecap:butt;stroke-linejoin:miter;" /><path d="M 151.2,-0.0 L 151.2,18 L 178.2,-0 L 151.2,-18 L 151.2,-0" style="stroke:black;fill:none;stroke-width:2.0;stroke-dasharray:-;stroke-linecap:round;stroke-linejoin:round;" /><path d="M 178.2,-0.0 L 203.4,-0 L 219.6,-0" style="stroke:black;fill:none;stroke-width:2.0;stroke-dasharray:-;stroke-linecap:round;stroke-linejoin:round;" /><path d="M 226.6 0 L 219.6 2.7 L 219.6 -2.7 Z" style="stroke:black;fill:black;stroke-linecap:butt;stroke-linejoin:miter;" /><path d="M 10.799999999999994,-109.8 L 10.8,-126 L 90,-126 L 90,-93.6 L 10.8,-93.6 L 10.8,-109.8" style="stroke:black;fill:none;stroke-width:2.0;stroke-dasharray:-;stroke-linecap:round;stroke-linejoin:round;" /><path d="M 50.4,-93.6 L 50.4,-59.4 L 50.4,-34.2" style="stroke:black;fill:none;stroke-width:2.0;stroke-dasharray:-;stroke-linecap:round;stroke-linejoin:round;" /><path d="M 50.4 -27.2 L 47.7 -34.2 L 53.1 -34.2 Z" style="stroke:black;fill:black;stroke-linecap:butt;stroke-linejoin:miter;" /><text x="-46.8" y="-13.0" dominant-baseline="central" fill="black" font-size="13" font-family="sans" text-anchor="end"><tspan x="-46.8" dy="13">x[n]</tspan></text><text x="50.4" y="-45.4" dominant-baseline="ideographic" fill="black" font-size="13" font-family="sans" text-anchor="middle"><tspan x="50.4" dy="13">z⁻ᴰ⁽ᵗ⁾</tspan></text><text x="50.4" y="-19.5" dominant-baseline="central" fill="black" font-size="13" font-family="sans" text-anchor="middle"><tspan x="50.4" dy="13">short tap (BRAM)</tspan><tspan x="50.4" dy="13">~9–17 ms</tspan></text><text x="164.7" y="-36.400000000000006" dominant-baseline="ideographic" fill="black" font-size="13" font-family="sans" text-anchor="middle"><tspan x="164.7" dy="13">× CC94 depth</tspan></text><text x="232.2" y="-13.0" dominant-baseline="central" fill="black" font-size="13" font-family="sans" text-anchor="start"><tspan x="232.2" dy="13">chorus wet</tspan></text><text x="50.4" y="-122.8" dominant-baseline="central" fill="black" font-size="13" font-family="sans" text-anchor="middle"><tspan x="50.4" dy="13">triangle LFO</tspan></text><text x="93.60000000000001" y="-68.8" dominant-baseline="central" fill="black" font-size="13" font-family="sans" text-anchor="middle"><tspan x="93.60000000000001" dy="13">sweeps D</tspan></text><text x="54.0" y="41.0" dominant-baseline="central" fill="black" font-size="13" font-family="sans" text-anchor="middle"><tspan x="54.0" dy="13">L / R taps anti-phase  •  read-only (no feedback)</tspan></text></svg>