<svg xmlns="http://www.w3.org/2000/svg" xmlns:xlink="http://www.w3.org/1999/xlink" xml:lang="en" height="143.52pt" width="329.44399999999996pt" viewBox="-68.896 -24.400000000000002 329.44399999999996 143.52"><circle cx="0" cy="-0" r="18" style="stroke:black;fill:none;stroke-width:2.0;stroke-dasharray:-;" /><path d="M 0.0,-7.2 L 0,7.2" style="stroke:black;fill:none;stroke-width:2.0;stroke-dasharray:-;stroke-linecap:round;stroke-linejoin:round;" /><path d="M -7.2,-0.0 L 7.2,-0" style="stroke:black;fill:none;stroke-width:2.0;stroke-dasharray:-;stroke-linecap:round;stroke-linejoin:round;" /><path d="M -50.4,-0.0 L -34.2,-0 L -27,-0" style="stroke:black;fill:none;stroke-width:2.0;stroke-dasharray:-;stroke-linecap:round;stroke-linejoin:round;" /><path d="M -20 0 L -27 2.7 L -27 -2.7 Z" style="stroke:black;fill:black;stroke-linecap:butt;stroke-linejoin:miter;" /><path d="M 18.0,-0.0 L 32.4,-0 L 37.8,-0" style="stroke:black;fill:none;stroke-width:2.0;stroke-dasharray:-;stroke-linecap:round;stroke-linejoin:round;" /><path d="M 44.8 0 L 37.8 2.7 L 37.8 -2.7 Z" style="stroke:black;fill:black;stroke-linecap:butt;stroke-linejoin:miter;" /><path d="M 46.800000000000004,-0.0 L 46.8,-19.8 L 154.8,-19.8 L 154.8,19.8 L 46.8,19.8 L 46.8,-0" style="stroke:black;fill:none;stroke-width:2.0;stroke-dasharray:-;stroke-linecap:round;stroke-linejoin:round;" /><path d="M 154.79999999999998,-0.0 L 162,-0 L 169.2,-0" style="stroke:black;fill:none;stroke-width:2.0;stroke-dasharray:-;stroke-linecap:round;stroke-linejoin:round;" /><path d="M 169.20000000000002,-0.0 L 192.6,-0 L 207,-0" style="stroke:black;fill:none;stroke-width:2.0;stroke-dasharray:-;stroke-linecap:round;stroke-linejoin:round;" /><path d="M 214 0 L 207 2.7 L 207 -2.7 Z" style="stroke:black;fill:black;stroke-linecap:butt;stroke-linejoin:miter;" /><path d="M 169.20000000000002,-0.0 L 169.2,39.6 L 169.2,79.2" style="stroke:black;fill:none;stroke-width:2.0;stroke-dasharray:-;stroke-linecap:round;stroke-linejoin:round;" /><path d="M 68.39999999999999,79.2 L 68.4,63 L 154.8,63 L 154.8,95.4 L 68.4,95.4 L 68.4,79.2" style="stroke:black;fill:none;stroke-width:2.0;stroke-dasharray:-;stroke-linecap:round;stroke-linejoin:round;" /><path d="M 169.20000000000002,79.2 L 162,79.2 L 154.8,79.2" style="stroke:black;fill:none;stroke-width:2.0;stroke-dasharray:-;stroke-linecap:round;stroke-linejoin:round;" /><path d="M 50.4,79.2 L 50.4,61.2 L 23.4,79.2 L 50.4,97.2 L 50.4,79.2" style="stroke:black;fill:none;stroke-width:2.0;stroke-dasharray:-;stroke-linecap:round;stroke-linejoin:round;" /><path d="M 68.39999999999999,79.2 L 59.4,79.2 L 50.4,79.2" style="stroke:black;fill:none;stroke-width:2.0;stroke-dasharray:-;stroke-linecap:round;stroke-linejoin:round;" /><path d="M 23.4,79.2 L 11.7,79.2 L 0,79.2" style="stroke:black;fill:none;stroke-width:2.0;stroke-dasharray:-;stroke-linecap:round;stroke-linejoin:round;" /><path d="M 0.0,79.2 L 0,48.6 L 0,27" style="stroke:black;fill:none;stroke-width:2.0;stroke-dasharray:-;stroke-linecap:round;stroke-linejoin:round;" /><path d="M 0 20 L 2.7 27 L -2.7 27 Z" style="stroke:black;fill:black;stroke-linecap:butt;stroke-linejoin:miter;" /><text x="-54.0" y="-13.0" dominant-baseline="central" fill="black" font-size="13" font-family="sans" text-anchor="end"><tspan x="-54.0" dy="13">in</tspan></text><text x="100.8" y="-19.5" dominant-baseline="central" fill="black" font-size="13" font-family="sans" text-anchor="middle"><tspan x="100.8" dy="13">z⁻ᴰ  (BRAM tank)</tspan><tspan x="100.8" dy="13">comb 810…1230</tspan></text><text x="219.6" y="-13.0" dominant-baseline="central" fill="black" font-size="13" font-family="sans" text-anchor="start"><tspan x="219.6" dy="13">y  (→ Σ)</tspan></text><text x="111.6" y="59.7" dominant-baseline="central" fill="black" font-size="13" font-family="sans" text-anchor="middle"><tspan x="111.6" dy="13">LP damp</tspan><tspan x="111.6" dy="13">½old+½new</tspan></text><text x="36.9" y="88.52000000000001" dominant-baseline="hanging" fill="black" font-size="13" font-family="sans" text-anchor="middle"><tspan x="36.9" dy="13">× g  (CC91, DSP48)</tspan></text><circle cx="169.2" cy="-0" r="2.7" style="stroke:black;fill:black;stroke-width:2.0;stroke-dasharray:-;" /></svg>