<svg xmlns="http://www.w3.org/2000/svg" xmlns:xlink="http://www.w3.org/1999/xlink" xml:lang="en" height="195.7pt" width="392.591pt" viewBox="-85.48899999999996 -130.6 392.591 195.7"><path d="M -43.199999999999996,-0.0 L -21.6,-0 L -9,-0" style="stroke:black;fill:none;stroke-width:2.0;stroke-dasharray:-;stroke-linecap:round;stroke-linejoin:round;" /><path d="M -2 0 L -9 2.7 L -9 -2.7 Z" style="stroke:black;fill:black;stroke-linecap:butt;stroke-linejoin:miter;" /><path d="M 0.0,-0.0 L 0,-25.2 L 108,-25.2 L 108,25.2 L 0,25.2 L 0,-0" style="stroke:black;fill:none;stroke-width:2.0;stroke-dasharray:-;stroke-linecap:round;stroke-linejoin:round;" /><path d="M 108.0,-0.0 L 133.2,-0 L 149.4,-0" style="stroke:black;fill:none;stroke-width:2.0;stroke-dasharray:-;stroke-linecap:round;stroke-linejoin:round;" /><path d="M 156.4 0 L 149.4 2.7 L 149.4 -2.7 Z" style="stroke:black;fill:black;stroke-linecap:butt;stroke-linejoin:miter;" /><path d="M 158.4,-0.0 L 158.4,18 L 185.4,-0 L 158.4,-18 L 158.4,-0" style="stroke:black;fill:none;stroke-width:2.0;stroke-dasharray:-;stroke-linecap:round;stroke-linejoin:round;" /><path d="M 185.4,-0.0 L 210.6,-0 L 226.8,-0" style="stroke:black;fill:none;stroke-width:2.0;stroke-dasharray:-;stroke-linecap:round;stroke-linejoin:round;" /><path d="M 233.8 0 L 226.8 2.7 L 226.8 -2.7 Z" style="stroke:black;fill:black;stroke-linecap:butt;stroke-linejoin:miter;" /><path d="M 14.399999999999997,-109.8 L 14.4,-126 L 93.6,-126 L 93.6,-93.6 L 14.4,-93.6 L 14.4,-109.8" style="stroke:black;fill:none;stroke-width:2.0;stroke-dasharray:-;stroke-linecap:round;stroke-linejoin:round;" /><path d="M 54.0,-93.6 L 54,-59.4 L 54,-34.2" style="stroke:black;fill:none;stroke-width:2.0;stroke-dasharray:-;stroke-linecap:round;stroke-linejoin:round;" /><path d="M 54 -27.2 L 51.3 -34.2 L 56.7 -34.2 Z" style="stroke:black;fill:black;stroke-linecap:butt;stroke-linejoin:miter;" /><text x="-46.8" y="-13.0" dominant-baseline="central" fill="black" font-size="13" font-family="sans" text-anchor="end"><tspan x="-46.8" dy="13">x[n]</tspan></text><text x="54.0" y="-19.5" dominant-baseline="central" fill="black" font-size="13" font-family="sans" text-anchor="middle"><tspan x="54.0" dy="13">z⁻ᴰ⁽ᵗ⁾  short tap</tspan><tspan x="54.0" dy="13">(BRAM, ~9–17 ms)</tspan></text><text x="171.9" y="-36.400000000000006" dominant-baseline="ideographic" fill="black" font-size="13" font-family="sans" text-anchor="middle"><tspan x="171.9" dy="13">× CC94 depth</tspan></text><text x="239.4" y="-13.0" dominant-baseline="central" fill="black" font-size="13" font-family="sans" text-anchor="start"><tspan x="239.4" dy="13">chorus wet</tspan></text><text x="54.0" y="-122.8" dominant-baseline="central" fill="black" font-size="13" font-family="sans" text-anchor="middle"><tspan x="54.0" dy="13">triangle LFO</tspan></text><text x="97.2" y="-68.8" dominant-baseline="central" fill="black" font-size="13" font-family="sans" text-anchor="middle"><tspan x="97.2" dy="13">sweeps D</tspan></text><text x="57.6" y="41.0" dominant-baseline="central" fill="black" font-size="13" font-family="sans" text-anchor="middle"><tspan x="57.6" dy="13">L / R taps anti-phase  •  read-only (no feedback)</tspan></text></svg>